<?xml version="1.0" encoding="iso-8859-1"?>
<!-- Generator: Adobe Illustrator 19.1.0, SVG Export Plug-In . SVG Version: 6.00 Build 0)  -->
<svg version="1.1" id="Capa_1" xmlns="http://www.w3.org/2000/svg" xmlns:xlink="http://www.w3.org/1999/xlink" x="0px" y="0px"
	 viewBox="0 0 442.611 442.611" style="enable-background:new 0 0 442.611 442.611;" xml:space="preserve">
<g>
	<path style="fill:#669933;" d="M216.303,276.221c-2.853-3.902-14.88-17.557-44.801-19.827c3.506,5.367,7.404,12.729,8.93,20.664
		c0.363,1.891-0.391,3.822-1.939,4.966c-1.549,1.145-3.616,1.296-5.316,0.395c-0.296-0.156-28.662-14.577-72.536-3.441
		c7.41,4.052,16.039,10.123,19.851,17.843c0.827,1.675,0.651,3.671-0.455,5.176c-1.106,1.505-2.961,2.27-4.804,1.978
		c-1.293-0.192-28.678-3.927-51.591,21.212c7.938-1.856,17.791-2.68,29.553-2.749h123.109V276.221z"/>
	<path style="fill:#CC9933;" d="M99.565,343.723h107.889c2.761,0,5,2.238,5,5c0,2.762-2.239,5-5,5H101.986
		c4.88,16.13,14.159,30.758,26.648,42.928h32.119c2.761,0,5,2.238,5,5c0,2.762-2.239,5-5,5h-20.391
		c21.666,16.151,49.98,25.961,80.94,25.961c44.132,0,82.916-19.906,104.683-49.75h-23.844c-2.761,0-5-2.238-5-5s2.239-5,5-5h30.279
		c6.952-12.34,11.171-26.006,11.965-40.426H98.219C98.43,336.255,98.888,340.02,99.565,343.723z M235.654,406.65h-52.995
		c-2.761,0-5-2.238-5-5c0-2.762,2.239-5,5-5h52.995c2.761,0,5,2.238,5,5C240.654,404.412,238.415,406.65,235.654,406.65z
		 M284.593,377.861c0,2.762-2.239,5-5,5h-79.27c-2.761,0-5-2.238-5-5s2.239-5,5-5h79.27
		C282.354,372.861,284.593,375.1,284.593,377.861z M230.679,343.723h25.197c2.761,0,5,2.238,5,5c0,2.762-2.239,5-5,5h-25.197
		c-2.761,0-5-2.238-5-5C225.679,345.961,227.918,343.723,230.679,343.723z"/>
	<path style="fill:#669933;" d="M327.373,303.973c-1.837,0.293-3.697-0.473-4.804-1.978c-1.106-1.505-1.282-3.501-0.455-5.176
		c3.813-7.722,12.447-13.795,19.858-17.846c-44.092-11.236-72.239,3.281-72.543,3.444c-1.701,0.902-3.768,0.75-5.316-0.395
		c-1.549-1.144-2.303-3.075-1.94-4.966c1.526-7.936,5.424-15.297,8.931-20.664c-29.919,2.268-41.946,15.92-44.801,19.826v46.216
		h123.108c11.857,0.075,21.582,0.887,29.515,2.74C355.742,299.898,327.695,303.922,327.373,303.973z"/>
	<path style="fill:#663333;" d="M230.679,353.723h25.197c2.761,0,5-2.238,5-5c0-2.762-2.239-5-5-5h-25.197c-2.761,0-5,2.238-5,5
		C225.679,351.484,227.918,353.723,230.679,353.723z"/>
	<path style="fill:#663333;" d="M195.323,377.861c0,2.762,2.239,5,5,5h79.27c2.761,0,5-2.238,5-5s-2.239-5-5-5h-79.27
		C197.562,372.861,195.323,375.1,195.323,377.861z"/>
	<path style="fill:#663333;" d="M235.654,396.65h-52.995c-2.761,0-5,2.238-5,5c0,2.762,2.239,5,5,5h52.995c2.761,0,5-2.238,5-5
		C240.654,398.889,238.415,396.65,235.654,396.65z"/>
	<path style="fill:#663333;" d="M337.493,293.881c6.702-5.446,16.095-9.652,20.289-11.178c1.991-0.721,3.311-2.618,3.297-4.735
		c-0.015-2.117-1.361-3.996-3.361-4.689c-12.162-4.219-23.397-6.603-33.546-7.749l-97.87-195.814l-0.014-24.594
		c0-1.65-0.814-3.193-2.175-4.125c-1.36-0.932-3.094-1.133-4.632-0.537c-1.806,0.7-3.718,1.055-5.684,1.055
		c-8.688,0-15.757-7.068-15.757-15.756c0-8.688,7.068-15.758,15.757-15.758c4.613,0,8.982,2.015,11.986,5.528
		c1.795,2.1,4.951,2.346,7.05,0.551c2.099-1.794,2.345-4.95,0.551-7.049C228.479,3.291,221.34,0,213.799,0
		c-14.202,0-25.757,11.555-25.757,25.758c0,14.202,11.555,25.756,25.757,25.756c0.836,0,1.667-0.04,2.49-0.118v18.347
		l-97.856,195.787c-10.149,1.146-21.385,3.529-33.547,7.749c-2,0.693-3.347,2.572-3.361,4.689c-0.014,2.117,1.307,4.015,3.297,4.735
		c4.196,1.52,13.596,5.72,20.3,11.177c-14.644,1.126-40.085,7.803-59.052,38.05c-1.164,1.857-0.967,4.241,0.446,5.917
		c2.065,2.449,5.141,1.605,5.784,1.324c0.172-0.074,16.225-6.938,35.907-6.881c2.954,61.265,61.518,110.321,133.094,110.321
		c71.576,0,130.14-49.057,133.094-110.321c19.603-0.054,35.734,6.82,35.908,6.881c2.189,0.765,4.812-0.194,5.784-1.324
		c1.429-1.661,1.61-4.06,0.446-5.917C377.572,301.688,352.139,295.009,337.493,293.881z M226.303,92.082l21.485,42.986h-21.485
		V92.082z M226.303,145.068h26.483l59.798,119.643c-16.408-0.451-29.187,2.246-37.4,4.788c3.991-8.504,9.801-14.963,9.876-15.046
		c1.329-1.455,1.679-3.555,0.894-5.362c-0.784-1.807-2.557-2.985-4.527-3.009c-0.542-0.006-1.075-0.009-1.609-0.009
		c-27.789,0-44.407,8.668-53.515,16.027V145.068z M216.303,92.082v42.986h-21.485L216.303,92.082z M189.82,145.068h26.483v117.038
		c-9.287-7.498-26.379-16.356-55.124-16.024c-1.968,0.023-3.737,1.201-4.522,3.006c-0.786,1.805-0.438,3.904,0.885,5.36
		c0.079,0.087,5.889,6.547,9.88,15.05c-8.214-2.542-20.992-5.239-37.4-4.787L189.82,145.068z M63.641,325.185
		c22.913-25.139,50.298-21.404,51.591-21.212c1.843,0.292,3.697-0.473,4.804-1.978c1.106-1.505,1.282-3.501,0.455-5.176
		c-3.812-7.72-12.441-13.791-19.851-17.843c43.874-11.136,72.24,3.285,72.536,3.441c1.701,0.901,3.768,0.75,5.316-0.395
		c1.549-1.144,2.303-3.075,1.939-4.966c-1.526-7.936-5.424-15.297-8.93-20.664c29.921,2.271,41.948,15.925,44.801,19.827v46.215
		H93.194C81.432,322.505,71.58,323.328,63.641,325.185z M332.421,372.861h-30.279c-2.761,0-5,2.238-5,5s2.239,5,5,5h23.844
		c-21.767,29.844-60.55,49.75-104.683,49.75c-30.96,0-59.274-9.81-80.94-25.961h20.391c2.761,0,5-2.238,5-5c0-2.762-2.239-5-5-5
		h-32.119c-12.49-12.17-21.769-26.798-26.648-42.928h105.469c2.761,0,5-2.238,5-5c0-2.762-2.239-5-5-5H99.565
		c-0.677-3.703-1.135-7.468-1.346-11.287h246.166C343.592,346.855,339.373,360.521,332.421,372.861z M349.411,322.435H226.303
		V276.22c2.855-3.906,14.882-17.559,44.801-19.826c-3.507,5.367-7.404,12.729-8.931,20.664c-0.363,1.891,0.391,3.822,1.94,4.966
		c1.549,1.145,3.616,1.297,5.316,0.395c0.304-0.163,28.451-14.681,72.543-3.444c-7.411,4.051-16.044,10.124-19.858,17.846
		c-0.827,1.675-0.651,3.671,0.455,5.176c1.107,1.505,2.966,2.271,4.804,1.978c0.322-0.051,28.369-4.074,51.553,21.203
		C370.993,323.322,361.268,322.511,349.411,322.435z"/>
</g>
<g>
</g>
<g>
</g>
<g>
</g>
<g>
</g>
<g>
</g>
<g>
</g>
<g>
</g>
<g>
</g>
<g>
</g>
<g>
</g>
<g>
</g>
<g>
</g>
<g>
</g>
<g>
</g>
<g>
</g>
</svg>
